<svg xmlns="http://www.w3.org/2000/svg" width="89" height="173" viewBox="0 0 89 173" fill="rgba(235,239,252,0.5)"><rect x="0" y="168" width="5" height="5"/><rect x="12" y="168" width="5" height="5"/><rect x="0" y="156" width="5" height="5"/><rect x="12" y="156" width="5" height="5"/><rect x="24" y="156" width="5" height="5"/><rect x="12" y="144" width="5" height="5"/><rect x="0" y="144" width="5" height="5"/><rect x="12" y="132" width="5" height="5"/><rect x="24" y="144" width="5" height="5"/><rect x="0" y="132" width="5" height="5"/><rect x="24" y="132" width="5" height="5"/><rect x="36" y="120" width="5" height="5"/><rect x="36" y="84" width="5" height="5"/><rect x="48" y="72" width="5" height="5"/><rect x="60" y="72" width="5" height="5"/><rect x="60" y="60" width="5" height="5"/><rect x="48" y="48" width="5" height="5"/><rect x="48" y="36" width="5" height="5"/><rect x="48" y="24" width="5" height="5"/><rect x="48" y="12" width="5" height="5"/><rect x="48" y="0" width="5" height="5"/><rect x="72" y="60" width="5" height="5"/><rect x="72" y="72" width="5" height="5"/><rect x="60" y="48" width="5" height="5"/><rect x="60" y="36" width="5" height="5"/><rect x="60" y="24" width="5" height="5"/><rect x="60" y="12" width="5" height="5"/><rect x="60" y="0" width="5" height="5"/><rect x="72" y="36" width="5" height="5"/><rect x="72" y="24" width="5" height="5"/><rect x="72" y="12" width="5" height="5"/><rect x="84" y="12" width="5" height="5"/><rect x="72" y="0" width="5" height="5"/><rect x="84" y="0" width="5" height="5"/><rect x="36" y="60" width="5" height="5"/><rect x="48" y="60" width="5" height="5"/><rect x="36" y="48" width="5" height="5"/><rect x="36" y="36" width="5" height="5"/><rect x="36" y="12" width="5" height="5"/><rect x="36" y="0" width="5" height="5"/><rect x="24" y="60" width="5" height="5"/><rect x="24" y="48" width="5" height="5"/><rect x="12" y="60" width="5" height="5"/><rect x="12" y="48" width="5" height="5"/><rect x="0" y="48" width="5" height="5"/><rect x="0" y="36" width="5" height="5"/><rect x="0" y="24" width="5" height="5"/><rect x="0" y="12" width="5" height="5"/><rect x="12" y="120" width="5" height="5"/></svg>