<svg xmlns="http://www.w3.org/2000/svg" width="173" height="89" viewBox="0 0 173 89" fill="rgba(235,239,252,0.5)"><rect x="168" y="84" width="5" height="5"/><rect x="168" y="72" width="5" height="5"/><rect x="156" y="84" width="5" height="5"/><rect x="156" y="72" width="5" height="5"/><rect x="156" y="60" width="5" height="5"/><rect x="144" y="72" width="5" height="5"/><rect x="144" y="84" width="5" height="5"/><rect x="132" y="72" width="5" height="5"/><rect x="144" y="60" width="5" height="5"/><rect x="132" y="84" width="5" height="5"/><rect x="132" y="60" width="5" height="5"/><rect x="120" y="48" width="5" height="5"/><rect x="84" y="48" width="5" height="5"/><rect x="72" y="36" width="5" height="5"/><rect x="72" y="24" width="5" height="5"/><rect x="60" y="24" width="5" height="5"/><rect x="48" y="36" width="5" height="5"/><rect x="36" y="36" width="5" height="5"/><rect x="24" y="36" width="5" height="5"/><rect x="12" y="36" width="5" height="5"/><rect x="0" y="36" width="5" height="5"/><rect x="60" y="12" width="5" height="5"/><rect x="72" y="12" width="5" height="5"/><rect x="48" y="24" width="5" height="5"/><rect x="36" y="24" width="5" height="5"/><rect x="24" y="24" width="5" height="5"/><rect x="12" y="24" width="5" height="5"/><rect x="0" y="24" width="5" height="5"/><rect x="36" y="12" width="5" height="5"/><rect x="24" y="12" width="5" height="5"/><rect x="12" y="12" width="5" height="5"/><rect x="12" y="0" width="5" height="5"/><rect x="0" y="12" width="5" height="5"/><rect x="0" y="0" width="5" height="5"/><rect x="60" y="48" width="5" height="5"/><rect x="60" y="36" width="5" height="5"/><rect x="48" y="48" width="5" height="5"/><rect x="36" y="48" width="5" height="5"/><rect x="12" y="48" width="5" height="5"/><rect x="0" y="48" width="5" height="5"/><rect x="60" y="60" width="5" height="5"/><rect x="48" y="60" width="5" height="5"/><rect x="60" y="72" width="5" height="5"/><rect x="48" y="72" width="5" height="5"/><rect x="48" y="84" width="5" height="5"/><rect x="36" y="84" width="5" height="5"/><rect x="24" y="84" width="5" height="5"/><rect x="12" y="84" width="5" height="5"/><rect x="120" y="72" width="5" height="5"/></svg>