<svg width="27.5" height="12.5" viewBox="0 0 27.5 12.5" fill="none" xmlns="http://www.w3.org/2000/svg">
<g id="pixel-arrow-icon">
<path id="Vector" d="M1.09375 5.3125H0.15625C0.0699555 5.3125 0 5.38246 0 5.46875V6.40625C0 6.49254 0.0699555 6.5625 0.15625 6.5625H1.09375C1.18004 6.5625 1.25 6.49254 1.25 6.40625V5.46875C1.25 5.38246 1.18004 5.3125 1.09375 5.3125Z" fill="var(--fill-0, #023FF4)"/>
<path id="Vector_2" d="M3.90625 5.3125H2.96875C2.88246 5.3125 2.8125 5.38246 2.8125 5.46875V6.40625C2.8125 6.49254 2.88246 6.5625 2.96875 6.5625H3.90625C3.99254 6.5625 4.0625 6.49254 4.0625 6.40625V5.46875C4.0625 5.38246 3.99254 5.3125 3.90625 5.3125Z" fill="var(--fill-0, #023FF4)"/>
<path id="Vector_3" d="M6.71875 5.3125H5.78125C5.69496 5.3125 5.625 5.38246 5.625 5.46875V6.40625C5.625 6.49254 5.69496 6.5625 5.78125 6.5625H6.71875C6.80504 6.5625 6.875 6.49254 6.875 6.40625V5.46875C6.875 5.38246 6.80504 5.3125 6.71875 5.3125Z" fill="var(--fill-0, #023FF4)"/>
<path id="Vector_4" d="M9.53125 5.3125H8.59375C8.50746 5.3125 8.4375 5.38246 8.4375 5.46875V6.40625C8.4375 6.49254 8.50746 6.5625 8.59375 6.5625H9.53125C9.61754 6.5625 9.6875 6.49254 9.6875 6.40625V5.46875C9.6875 5.38246 9.61754 5.3125 9.53125 5.3125Z" fill="var(--fill-0, #023FF4)"/>
<path id="Vector_5" d="M12.3438 5.3125H11.4062C11.32 5.3125 11.25 5.38246 11.25 5.46875V6.40625C11.25 6.49254 11.32 6.5625 11.4062 6.5625H12.3438C12.43 6.5625 12.5 6.49254 12.5 6.40625V5.46875C12.5 5.38246 12.43 5.3125 12.3438 5.3125Z" fill="var(--fill-0, #023FF4)"/>
<path id="Vector_6" d="M15.1562 5.3125H14.2188C14.1325 5.3125 14.0625 5.38246 14.0625 5.46875V6.40625C14.0625 6.49254 14.1325 6.5625 14.2188 6.5625H15.1562C15.2425 6.5625 15.3125 6.49254 15.3125 6.40625V5.46875C15.3125 5.38246 15.2425 5.3125 15.1562 5.3125Z" fill="var(--fill-0, #023FF4)"/>
<path id="Vector_7" d="M17.9688 5.3125H17.0312C16.945 5.3125 16.875 5.38246 16.875 5.46875V6.40625C16.875 6.49254 16.945 6.5625 17.0312 6.5625H17.9688C18.055 6.5625 18.125 6.49254 18.125 6.40625V5.46875C18.125 5.38246 18.055 5.3125 17.9688 5.3125Z" fill="var(--fill-0, #023FF4)"/>
<path id="Vector_8" d="M20.7812 5.3125H19.8438C19.7575 5.3125 19.6875 5.38246 19.6875 5.46875V6.40625C19.6875 6.49254 19.7575 6.5625 19.8438 6.5625H20.7812C20.8675 6.5625 20.9375 6.49254 20.9375 6.40625V5.46875C20.9375 5.38246 20.8675 5.3125 20.7812 5.3125Z" fill="var(--fill-0, #023FF4)"/>
<path id="Vector_9" d="M23.5938 5.3125H22.6562C22.57 5.3125 22.5 5.38246 22.5 5.46875V6.40625C22.5 6.49254 22.57 6.5625 22.6562 6.5625H23.5938C23.68 6.5625 23.75 6.49254 23.75 6.40625V5.46875C23.75 5.38246 23.68 5.3125 23.5938 5.3125Z" fill="var(--fill-0, #023FF4)"/>
<path id="Vector_10" d="M24.8438 2.5H22.6562C22.57 2.5 22.5 2.56996 22.5 2.65625V4.84375C22.5 4.93004 22.57 5 22.6562 5H24.8438C24.93 5 25 4.93004 25 4.84375V2.65625C25 2.56996 24.93 2.5 24.8438 2.5Z" fill="var(--fill-0, #023FF4)"/>
<path id="Vector_11" d="M27.3438 5H25.1562C25.07 5 25 5.06996 25 5.15625V7.34375C25 7.43004 25.07 7.5 25.1562 7.5H27.3438C27.43 7.5 27.5 7.43004 27.5 7.34375V5.15625C27.5 5.06996 27.43 5 27.3438 5Z" fill="var(--fill-0, #023FF4)"/>
<path id="Vector_12" d="M24.8438 7.5H22.6562C22.57 7.5 22.5 7.56996 22.5 7.65625V9.84375C22.5 9.93004 22.57 10 22.6562 10H24.8438C24.93 10 25 9.93004 25 9.84375V7.65625C25 7.56996 24.93 7.5 24.8438 7.5Z" fill="var(--fill-0, #023FF4)"/>
<path id="Vector_13" d="M22.3438 0H20.1562C20.07 0 20 0.0699555 20 0.15625V2.34375C20 2.43004 20.07 2.5 20.1562 2.5H22.3438C22.43 2.5 22.5 2.43004 22.5 2.34375V0.15625C22.5 0.0699555 22.43 0 22.3438 0Z" fill="var(--fill-0, #023FF4)"/>
<path id="Vector_14" d="M22.3438 10H20.1562C20.07 10 20 10.07 20 10.1562V12.3438C20 12.43 20.07 12.5 20.1562 12.5H22.3438C22.43 12.5 22.5 12.43 22.5 12.3438V10.1562C22.5 10.07 22.43 10 22.3438 10Z" fill="var(--fill-0, #023FF4)"/>
</g>
</svg>
