<svg width="48" height="48" viewBox="0 0 48 48" fill="none" xmlns="http://www.w3.org/2000/svg">
<rect width="48" height="48" fill="#383838"/>
<g id="Avail Atomic">
<mask id="path-1-inside-1_0_1" fill="white">
<path d="M-431 -2788H1009V2741H-431V-2788Z"/>
</mask>
<path d="M-431 -2788H1009V2741H-431V-2788Z" fill="#FFFFFE"/>
<path d="M-431 -2788V-2808H-451V-2788H-431ZM1009 -2788H1029V-2808H1009V-2788ZM-431 -2788V-2768H1009V-2788V-2808H-431V-2788ZM1009 -2788H989V2741H1009H1029V-2788H1009ZM-431 2741H-411V-2788H-431H-451V2741H-431Z" fill="#F9F9F8" mask="url(#path-1-inside-1_0_1)"/>
<g id="What is Avail Atomic">
<g clip-path="url(#clip0_0_1)">
<rect x="-431" y="-272" width="1440" height="630" rx="4" fill="#FFFFFE"/>
<rect x="-431" y="-272" width="1440" height="630" rx="4"/>
<g id="Hero Content">
<rect x="-431" y="-272" width="1440" height="630" rx="4" fill="#FFFFFE"/>
<rect x="-431" y="-272" width="1440" height="630" rx="4"/>
<g id="Value Row">
<g id="Frame">
<rect width="303" height="306" transform="translate(-28 -32)" fill="#F5F8FF"/>
<g id="Frame_2">
<rect width="64" height="64" transform="translate(-8 -8)" fill="#DFE8FF"/>
<g id="icon-integration">
<rect id="Rectangle" x="36" y="11" width="2.5" height="2.5" rx="0.4" fill="#0048FF"/>
<rect id="Rectangle_2" x="39" y="11" width="2.5" height="2.5" rx="0.4" fill="#0048FF"/>
<rect id="Rectangle_3" x="33" y="14" width="2.5" height="2.5" rx="0.4" fill="#85B7EB"/>
<rect id="Rectangle_4" x="36" y="14" width="2.5" height="2.5" rx="0.4" fill="#0048FF"/>
<rect id="Rectangle_5" x="39" y="14" width="2.5" height="2.5" rx="0.4" fill="#0048FF"/>
<rect id="Rectangle_6" x="27" y="17" width="2.5" height="2.5" rx="0.4" fill="#85B7EB"/>
<rect id="Rectangle_7" x="30" y="17" width="2.5" height="2.5" rx="0.4" fill="#85B7EB"/>
<rect id="Rectangle_8" x="6" y="20" width="2.5" height="2.5" rx="0.4" fill="#0048FF"/>
<rect id="Rectangle_9" x="9" y="20" width="2.5" height="2.5" rx="0.4" fill="#0048FF"/>
<rect id="Rectangle_10" x="12" y="20" width="2.5" height="2.5" rx="0.4" fill="#0048FF"/>
<rect id="Rectangle_11" x="21" y="20" width="2.5" height="2.5" rx="0.4" fill="#85B7EB"/>
<rect id="Rectangle_12" x="24" y="20" width="2.5" height="2.5" rx="0.4" fill="#85B7EB"/>
<rect id="Rectangle_13" x="36" y="20" width="2.5" height="2.5" rx="0.4" fill="#0048FF"/>
<rect id="Rectangle_14" x="39" y="20" width="2.5" height="2.5" rx="0.4" fill="#0048FF"/>
<rect id="Rectangle_15" x="6" y="23" width="2.5" height="2.5" rx="0.4" fill="#0048FF"/>
<rect id="Rectangle_16" x="9" y="23" width="2.5" height="2.5" rx="0.4" fill="#0048FF"/>
<rect id="Rectangle_17" x="12" y="23" width="2.5" height="2.5" rx="0.4" fill="#0048FF"/>
<rect id="Rectangle_18" x="15" y="23" width="2.5" height="2.5" rx="0.4" fill="#85B7EB"/>
<rect id="Rectangle_19" x="18" y="23" width="2.5" height="2.5" rx="0.4" fill="#85B7EB"/>
<rect id="Rectangle_20" x="21" y="23" width="2.5" height="2.5" rx="0.4" fill="#85B7EB"/>
<rect id="Rectangle_21" x="24" y="23" width="2.5" height="2.5" rx="0.4" fill="#85B7EB"/>
<rect id="Rectangle_22" x="27" y="23" width="2.5" height="2.5" rx="0.4" fill="#85B7EB"/>
<rect id="Rectangle_23" x="30" y="23" width="2.5" height="2.5" rx="0.4" fill="#85B7EB"/>
<rect id="Rectangle_24" x="33" y="23" width="2.5" height="2.5" rx="0.4" fill="#85B7EB"/>
<rect id="Rectangle_25" x="36" y="23" width="2.5" height="2.5" rx="0.4" fill="#0048FF"/>
<rect id="Rectangle_26" x="39" y="23" width="2.5" height="2.5" rx="0.4" fill="#0048FF"/>
<rect id="Rectangle_27" x="6" y="26" width="2.5" height="2.5" rx="0.4" fill="#0048FF"/>
<rect id="Rectangle_28" x="9" y="26" width="2.5" height="2.5" rx="0.4" fill="#0048FF"/>
<rect id="Rectangle_29" x="12" y="26" width="2.5" height="2.5" rx="0.4" fill="#0048FF"/>
<rect id="Rectangle_30" x="21" y="26" width="2.5" height="2.5" rx="0.4" fill="#85B7EB"/>
<rect id="Rectangle_31" x="24" y="26" width="2.5" height="2.5" rx="0.4" fill="#85B7EB"/>
<rect id="Rectangle_32" x="27" y="29" width="2.5" height="2.5" rx="0.4" fill="#85B7EB"/>
<rect id="Rectangle_33" x="30" y="29" width="2.5" height="2.5" rx="0.4" fill="#85B7EB"/>
<rect id="Rectangle_34" x="33" y="32" width="2.5" height="2.5" rx="0.4" fill="#85B7EB"/>
<rect id="Rectangle_35" x="36" y="32" width="2.5" height="2.5" rx="0.4" fill="#0048FF"/>
<rect id="Rectangle_36" x="39" y="32" width="2.5" height="2.5" rx="0.4" fill="#0048FF"/>
<rect id="Rectangle_37" x="36" y="35" width="2.5" height="2.5" rx="0.4" fill="#0048FF"/>
<rect id="Rectangle_38" x="39" y="35" width="2.5" height="2.5" rx="0.4" fill="#0048FF"/>
</g>
</g>
</g>
</g>
</g>
</g>
</g>
</g>
<defs>
<clipPath id="clip0_0_1">
<rect x="-431" y="-272" width="1440" height="630" rx="4" fill="white"/>
</clipPath>
</defs>
</svg>
