<svg width="48" height="48" viewBox="0 0 48 48" fill="none" xmlns="http://www.w3.org/2000/svg">
<rect width="48" height="48" fill="#383838"/>
<g id="Avail Atomic">
<mask id="path-1-inside-1_0_1" fill="white">
<path d="M-1093 -2788H347V2741H-1093V-2788Z"/>
</mask>
<path d="M-1093 -2788H347V2741H-1093V-2788Z" fill="#FFFFFE"/>
<path d="M-1093 -2788V-2808H-1113V-2788H-1093ZM347 -2788H367V-2808H347V-2788ZM-1093 -2788V-2768H347V-2788V-2808H-1093V-2788ZM347 -2788H327V2741H347H367V-2788H347ZM-1093 2741H-1073V-2788H-1093H-1113V2741H-1093Z" fill="#F9F9F8" mask="url(#path-1-inside-1_0_1)"/>
<g id="What is Avail Atomic">
<g clip-path="url(#clip0_0_1)">
<rect x="-1093" y="-272" width="1440" height="630" rx="4" fill="#FFFFFE"/>
<rect x="-1093" y="-272" width="1440" height="630" rx="4"/>
<g id="Hero Content">
<rect x="-1093" y="-272" width="1440" height="630" rx="4" fill="#FFFFFE"/>
<rect x="-1093" y="-272" width="1440" height="630" rx="4"/>
<g id="Value Row">
<g id="Frame">
<rect width="303" height="306" transform="translate(-28 -32)" fill="#F5F8FF"/>
<g id="Frame_2">
<rect width="64" height="64" transform="translate(-8 -8)" fill="#DFE8FF"/>
<g id="icon-atomic">
<rect id="Rectangle" x="8" y="11" width="2.5" height="2.5" rx="0.4" fill="#0048FF"/>
<rect id="Rectangle_2" x="11" y="11" width="2.5" height="2.5" rx="0.4" fill="#0048FF"/>
<rect id="Rectangle_3" x="14" y="11" width="2.5" height="2.5" rx="0.4" fill="#0048FF"/>
<rect id="Rectangle_4" x="17" y="11" width="2.5" height="2.5" rx="0.4" fill="#0048FF"/>
<rect id="Rectangle_5" x="20" y="11" width="2.5" height="2.5" rx="0.4" fill="#0048FF"/>
<rect id="Rectangle_6" x="23" y="11" width="2.5" height="2.5" rx="0.4" fill="#0048FF"/>
<rect id="Rectangle_7" x="8" y="14" width="2.5" height="2.5" rx="0.4" fill="#0048FF"/>
<rect id="Rectangle_8" x="23" y="14" width="2.5" height="2.5" rx="0.4" fill="#0048FF"/>
<rect id="Rectangle_9" x="8" y="17" width="2.5" height="2.5" rx="0.4" fill="#0048FF"/>
<rect id="Rectangle_10" x="23" y="17" width="2.5" height="2.5" rx="0.4" fill="#0048FF"/>
<rect id="Rectangle_11" x="8" y="20" width="2.5" height="2.5" rx="0.4" fill="#0048FF"/>
<rect id="Rectangle_12" x="23" y="20" width="2.5" height="2.5" rx="0.4" fill="#0048FF"/>
<rect id="Rectangle_13" x="26" y="20" width="2.5" height="2.5" rx="0.4" fill="#0048FF"/>
<rect id="Rectangle_14" x="29" y="20" width="2.5" height="2.5" rx="0.4" fill="#0048FF"/>
<rect id="Rectangle_15" x="32" y="20" width="2.5" height="2.5" rx="0.4" fill="#0048FF"/>
<rect id="Rectangle_16" x="35" y="20" width="2.5" height="2.5" rx="0.4" fill="#0048FF"/>
<rect id="Rectangle_17" x="38" y="20" width="2.5" height="2.5" rx="0.4" fill="#0048FF"/>
<rect id="Rectangle_18" x="8" y="23" width="2.5" height="2.5" rx="0.4" fill="#0048FF"/>
<rect id="Rectangle_19" x="23" y="23" width="2.5" height="2.5" rx="0.4" fill="#0048FF"/>
<rect id="Rectangle_20" x="26" y="23" width="2.5" height="2.5" rx="0.4" fill="#85B7EB"/>
<rect id="Rectangle_21" x="29" y="23" width="2.5" height="2.5" rx="0.4" fill="#85B7EB"/>
<rect id="Rectangle_22" x="32" y="23" width="2.5" height="2.5" rx="0.4" fill="#85B7EB"/>
<rect id="Rectangle_23" x="35" y="23" width="2.5" height="2.5" rx="0.4" fill="#85B7EB"/>
<rect id="Rectangle_24" x="38" y="23" width="2.5" height="2.5" rx="0.4" fill="#0048FF"/>
<rect id="Rectangle_25" x="8" y="26" width="2.5" height="2.5" rx="0.4" fill="#0048FF"/>
<rect id="Rectangle_26" x="11" y="26" width="2.5" height="2.5" rx="0.4" fill="#0048FF"/>
<rect id="Rectangle_27" x="14" y="26" width="2.5" height="2.5" rx="0.4" fill="#0048FF"/>
<rect id="Rectangle_28" x="17" y="26" width="2.5" height="2.5" rx="0.4" fill="#0048FF"/>
<rect id="Rectangle_29" x="20" y="26" width="2.5" height="2.5" rx="0.4" fill="#0048FF"/>
<rect id="Rectangle_30" x="23" y="26" width="2.5" height="2.5" rx="0.4" fill="#0048FF"/>
<rect id="Rectangle_31" x="26" y="26" width="2.5" height="2.5" rx="0.4" fill="#85B7EB"/>
<rect id="Rectangle_32" x="29" y="26" width="2.5" height="2.5" rx="0.4" fill="#85B7EB"/>
<rect id="Rectangle_33" x="32" y="26" width="2.5" height="2.5" rx="0.4" fill="#85B7EB"/>
<rect id="Rectangle_34" x="35" y="26" width="2.5" height="2.5" rx="0.4" fill="#85B7EB"/>
<rect id="Rectangle_35" x="38" y="26" width="2.5" height="2.5" rx="0.4" fill="#0048FF"/>
<rect id="Rectangle_36" x="23" y="29" width="2.5" height="2.5" rx="0.4" fill="#0048FF"/>
<rect id="Rectangle_37" x="26" y="29" width="2.5" height="2.5" rx="0.4" fill="#85B7EB"/>
<rect id="Rectangle_38" x="29" y="29" width="2.5" height="2.5" rx="0.4" fill="#85B7EB"/>
<rect id="Rectangle_39" x="32" y="29" width="2.5" height="2.5" rx="0.4" fill="#85B7EB"/>
<rect id="Rectangle_40" x="35" y="29" width="2.5" height="2.5" rx="0.4" fill="#85B7EB"/>
<rect id="Rectangle_41" x="38" y="29" width="2.5" height="2.5" rx="0.4" fill="#0048FF"/>
<rect id="Rectangle_42" x="23" y="32" width="2.5" height="2.5" rx="0.4" fill="#0048FF"/>
<rect id="Rectangle_43" x="26" y="32" width="2.5" height="2.5" rx="0.4" fill="#85B7EB"/>
<rect id="Rectangle_44" x="29" y="32" width="2.5" height="2.5" rx="0.4" fill="#85B7EB"/>
<rect id="Rectangle_45" x="32" y="32" width="2.5" height="2.5" rx="0.4" fill="#85B7EB"/>
<rect id="Rectangle_46" x="35" y="32" width="2.5" height="2.5" rx="0.4" fill="#85B7EB"/>
<rect id="Rectangle_47" x="38" y="32" width="2.5" height="2.5" rx="0.4" fill="#0048FF"/>
<rect id="Rectangle_48" x="23" y="35" width="2.5" height="2.5" rx="0.4" fill="#0048FF"/>
<rect id="Rectangle_49" x="26" y="35" width="2.5" height="2.5" rx="0.4" fill="#0048FF"/>
<rect id="Rectangle_50" x="29" y="35" width="2.5" height="2.5" rx="0.4" fill="#0048FF"/>
<rect id="Rectangle_51" x="32" y="35" width="2.5" height="2.5" rx="0.4" fill="#0048FF"/>
<rect id="Rectangle_52" x="35" y="35" width="2.5" height="2.5" rx="0.4" fill="#0048FF"/>
<rect id="Rectangle_53" x="38" y="35" width="2.5" height="2.5" rx="0.4" fill="#0048FF"/>
</g>
</g>
</g>
</g>
</g>
</g>
</g>
</g>
<defs>
<clipPath id="clip0_0_1">
<rect x="-1093" y="-272" width="1440" height="630" rx="4" fill="white"/>
</clipPath>
</defs>
</svg>
