<svg width="48" height="48" viewBox="0 0 48 48" fill="none" xmlns="http://www.w3.org/2000/svg">
<rect width="48" height="48" fill="#383838"/>
<g id="Avail Atomic">
<mask id="path-1-inside-1_0_1" fill="white">
<path d="M-762 -2788H678V2741H-762V-2788Z"/>
</mask>
<path d="M-762 -2788H678V2741H-762V-2788Z" fill="#FFFFFE"/>
<path d="M-762 -2788V-2808H-782V-2788H-762ZM678 -2788H698V-2808H678V-2788ZM-762 -2788V-2768H678V-2788V-2808H-762V-2788ZM678 -2788H658V2741H678H698V-2788H678ZM-762 2741H-742V-2788H-762H-782V2741H-762Z" fill="#F9F9F8" mask="url(#path-1-inside-1_0_1)"/>
<g id="What is Avail Atomic">
<g clip-path="url(#clip0_0_1)">
<rect x="-762" y="-272" width="1440" height="630" rx="4" fill="#FFFFFE"/>
<rect x="-762" y="-272" width="1440" height="630" rx="4"/>
<g id="Hero Content">
<rect x="-762" y="-272" width="1440" height="630" rx="4" fill="#FFFFFE"/>
<rect x="-762" y="-272" width="1440" height="630" rx="4"/>
<g id="Value Row">
<g id="Frame">
<rect width="303" height="306" transform="translate(-28 -32)" fill="#F5F8FF"/>
<g id="Frame_2">
<rect width="64" height="64" transform="translate(-8 -8)" fill="#DFE8FF"/>
<g id="icon-trustless">
<rect id="Rectangle" x="17" y="6" width="2.5" height="2.5" rx="0.4" fill="#0048FF"/>
<rect id="Rectangle_2" x="20" y="6" width="2.5" height="2.5" rx="0.4" fill="#0048FF"/>
<rect id="Rectangle_3" x="23" y="6" width="2.5" height="2.5" rx="0.4" fill="#0048FF"/>
<rect id="Rectangle_4" x="26" y="6" width="2.5" height="2.5" rx="0.4" fill="#0048FF"/>
<rect id="Rectangle_5" x="14" y="9" width="2.5" height="2.5" rx="0.4" fill="#0048FF"/>
<rect id="Rectangle_6" x="29" y="9" width="2.5" height="2.5" rx="0.4" fill="#0048FF"/>
<rect id="Rectangle_7" x="14" y="12" width="2.5" height="2.5" rx="0.4" fill="#0048FF"/>
<rect id="Rectangle_8" x="29" y="12" width="2.5" height="2.5" rx="0.4" fill="#0048FF"/>
<rect id="Rectangle_9" x="14" y="15" width="2.5" height="2.5" rx="0.4" fill="#0048FF"/>
<rect id="Rectangle_10" x="29" y="15" width="2.5" height="2.5" rx="0.4" fill="#0048FF"/>
<rect id="Rectangle_11" x="11" y="18" width="2.5" height="2.5" rx="0.4" fill="#0048FF"/>
<rect id="Rectangle_12" x="14" y="18" width="2.5" height="2.5" rx="0.4" fill="#0048FF"/>
<rect id="Rectangle_13" x="17" y="18" width="2.5" height="2.5" rx="0.4" fill="#0048FF"/>
<rect id="Rectangle_14" x="20" y="18" width="2.5" height="2.5" rx="0.4" fill="#0048FF"/>
<rect id="Rectangle_15" x="23" y="18" width="2.5" height="2.5" rx="0.4" fill="#0048FF"/>
<rect id="Rectangle_16" x="26" y="18" width="2.5" height="2.5" rx="0.4" fill="#0048FF"/>
<rect id="Rectangle_17" x="29" y="18" width="2.5" height="2.5" rx="0.4" fill="#0048FF"/>
<rect id="Rectangle_18" x="32" y="18" width="2.5" height="2.5" rx="0.4" fill="#0048FF"/>
<rect id="Rectangle_19" x="35" y="18" width="2.5" height="2.5" rx="0.4" fill="#0048FF"/>
<rect id="Rectangle_20" x="11" y="21" width="2.5" height="2.5" rx="0.4" fill="#0048FF"/>
<rect id="Rectangle_21" x="14" y="21" width="2.5" height="2.5" rx="0.4" fill="#85B7EB"/>
<rect id="Rectangle_22" x="17" y="21" width="2.5" height="2.5" rx="0.4" fill="#85B7EB"/>
<rect id="Rectangle_23" x="20" y="21" width="2.5" height="2.5" rx="0.4" fill="#85B7EB"/>
<rect id="Rectangle_24" x="23" y="21" width="2.5" height="2.5" rx="0.4" fill="#85B7EB"/>
<rect id="Rectangle_25" x="26" y="21" width="2.5" height="2.5" rx="0.4" fill="#85B7EB"/>
<rect id="Rectangle_26" x="29" y="21" width="2.5" height="2.5" rx="0.4" fill="#85B7EB"/>
<rect id="Rectangle_27" x="32" y="21" width="2.5" height="2.5" rx="0.4" fill="#85B7EB"/>
<rect id="Rectangle_28" x="35" y="21" width="2.5" height="2.5" rx="0.4" fill="#0048FF"/>
<rect id="Rectangle_29" x="11" y="24" width="2.5" height="2.5" rx="0.4" fill="#0048FF"/>
<rect id="Rectangle_30" x="14" y="24" width="2.5" height="2.5" rx="0.4" fill="#85B7EB"/>
<rect id="Rectangle_31" x="17" y="24" width="2.5" height="2.5" rx="0.4" fill="#85B7EB"/>
<rect id="Rectangle_32" x="20" y="24" width="2.5" height="2.5" rx="0.4" fill="#0048FF"/>
<rect id="Rectangle_33" x="23" y="24" width="2.5" height="2.5" rx="0.4" fill="#0048FF"/>
<rect id="Rectangle_34" x="26" y="24" width="2.5" height="2.5" rx="0.4" fill="#0048FF"/>
<rect id="Rectangle_35" x="29" y="24" width="2.5" height="2.5" rx="0.4" fill="#85B7EB"/>
<rect id="Rectangle_36" x="32" y="24" width="2.5" height="2.5" rx="0.4" fill="#85B7EB"/>
<rect id="Rectangle_37" x="35" y="24" width="2.5" height="2.5" rx="0.4" fill="#0048FF"/>
<rect id="Rectangle_38" x="11" y="27" width="2.5" height="2.5" rx="0.4" fill="#0048FF"/>
<rect id="Rectangle_39" x="14" y="27" width="2.5" height="2.5" rx="0.4" fill="#85B7EB"/>
<rect id="Rectangle_40" x="17" y="27" width="2.5" height="2.5" rx="0.4" fill="#85B7EB"/>
<rect id="Rectangle_41" x="20" y="27" width="2.5" height="2.5" rx="0.4" fill="#85B7EB"/>
<rect id="Rectangle_42" x="23" y="27" width="2.5" height="2.5" rx="0.4" fill="#0048FF"/>
<rect id="Rectangle_43" x="26" y="27" width="2.5" height="2.5" rx="0.4" fill="#85B7EB"/>
<rect id="Rectangle_44" x="29" y="27" width="2.5" height="2.5" rx="0.4" fill="#85B7EB"/>
<rect id="Rectangle_45" x="32" y="27" width="2.5" height="2.5" rx="0.4" fill="#85B7EB"/>
<rect id="Rectangle_46" x="35" y="27" width="2.5" height="2.5" rx="0.4" fill="#0048FF"/>
<rect id="Rectangle_47" x="11" y="30" width="2.5" height="2.5" rx="0.4" fill="#0048FF"/>
<rect id="Rectangle_48" x="14" y="30" width="2.5" height="2.5" rx="0.4" fill="#85B7EB"/>
<rect id="Rectangle_49" x="17" y="30" width="2.5" height="2.5" rx="0.4" fill="#85B7EB"/>
<rect id="Rectangle_50" x="20" y="30" width="2.5" height="2.5" rx="0.4" fill="#85B7EB"/>
<rect id="Rectangle_51" x="23" y="30" width="2.5" height="2.5" rx="0.4" fill="#0048FF"/>
<rect id="Rectangle_52" x="26" y="30" width="2.5" height="2.5" rx="0.4" fill="#85B7EB"/>
<rect id="Rectangle_53" x="29" y="30" width="2.5" height="2.5" rx="0.4" fill="#85B7EB"/>
<rect id="Rectangle_54" x="32" y="30" width="2.5" height="2.5" rx="0.4" fill="#85B7EB"/>
<rect id="Rectangle_55" x="35" y="30" width="2.5" height="2.5" rx="0.4" fill="#0048FF"/>
<rect id="Rectangle_56" x="11" y="33" width="2.5" height="2.5" rx="0.4" fill="#0048FF"/>
<rect id="Rectangle_57" x="14" y="33" width="2.5" height="2.5" rx="0.4" fill="#85B7EB"/>
<rect id="Rectangle_58" x="17" y="33" width="2.5" height="2.5" rx="0.4" fill="#85B7EB"/>
<rect id="Rectangle_59" x="20" y="33" width="2.5" height="2.5" rx="0.4" fill="#85B7EB"/>
<rect id="Rectangle_60" x="23" y="33" width="2.5" height="2.5" rx="0.4" fill="#85B7EB"/>
<rect id="Rectangle_61" x="26" y="33" width="2.5" height="2.5" rx="0.4" fill="#85B7EB"/>
<rect id="Rectangle_62" x="29" y="33" width="2.5" height="2.5" rx="0.4" fill="#85B7EB"/>
<rect id="Rectangle_63" x="32" y="33" width="2.5" height="2.5" rx="0.4" fill="#85B7EB"/>
<rect id="Rectangle_64" x="35" y="33" width="2.5" height="2.5" rx="0.4" fill="#0048FF"/>
<rect id="Rectangle_65" x="11" y="36" width="2.5" height="2.5" rx="0.4" fill="#0048FF"/>
<rect id="Rectangle_66" x="14" y="36" width="2.5" height="2.5" rx="0.4" fill="#0048FF"/>
<rect id="Rectangle_67" x="17" y="36" width="2.5" height="2.5" rx="0.4" fill="#0048FF"/>
<rect id="Rectangle_68" x="20" y="36" width="2.5" height="2.5" rx="0.4" fill="#0048FF"/>
<rect id="Rectangle_69" x="23" y="36" width="2.5" height="2.5" rx="0.4" fill="#0048FF"/>
<rect id="Rectangle_70" x="26" y="36" width="2.5" height="2.5" rx="0.4" fill="#0048FF"/>
<rect id="Rectangle_71" x="29" y="36" width="2.5" height="2.5" rx="0.4" fill="#0048FF"/>
<rect id="Rectangle_72" x="32" y="36" width="2.5" height="2.5" rx="0.4" fill="#0048FF"/>
<rect id="Rectangle_73" x="35" y="36" width="2.5" height="2.5" rx="0.4" fill="#0048FF"/>
</g>
</g>
</g>
</g>
</g>
</g>
</g>
</g>
<defs>
<clipPath id="clip0_0_1">
<rect x="-762" y="-272" width="1440" height="630" rx="4" fill="white"/>
</clipPath>
</defs>
</svg>
